<svg width="392.68433837890626px" height="84.8px" xmlns="http://www.w3.org/2000/svg" viewBox="53.65783081054687 32.6 392.68433837890626 84.8" style="background: rgba(0, 0, 0, 0);" preserveAspectRatio="xMidYMid"><defs><linearGradient id="editing-shiny-gradient" x1="0.04322727117869957" x2="0.9567727288213004" y1="0.2966316784620999" y2="0.7033683215379001" gradientUnits="objectBoundingBox"><stop offset="0.0" stop-color="#ffb200"></stop><stop offset="0.5" stop-color="#e10057"></stop><stop offset="1.0" stop-color="#5A1A80"></stop></linearGradient><linearGradient id="editing-shiny-gradient2" x1="0" x2="0" y1="0" y2="1"><stop offset="0.2" stop-color="#fff" stop-opacity="0.8"></stop><stop offset="0.8" stop-color="#fff" stop-opacity="0"></stop></linearGradient><filter id="editing-shiny2" x="-100%" y="-100%" width="300%" height="300%"><feMorphology operator="erode" radius="2"></feMorphology></filter><filter id="editing-shiny" x="-100%" y="-100%" width="300%" height="300%"><feFlood flood-color="#fff" result="flood"></feFlood><feConvolveMatrix in="SourceGraphic" result="conv" order="8,8" divisor="1" kernelMatrix="0 0 0 0 0 0 0 0 0 0 0 1 1 0 0 0 0 0 0 1 1 0 0 0 0 0 1 0 0 1 0 0 0 0 1 0 0 1 0 0 0 1 0 0 0 0 1 0 0 1 1 0 0 1 1 0 0 0 0 1 1 0 0 0 "></feConvolveMatrix><feOffset dx="0" dy="4" in="conv" result="offset"></feOffset><feComposite operator="in" in="flood" in2="offset" result="comp"></feComposite><feGaussianBlur in="offset" stdDeviation="3" result="shadow"></feGaussianBlur><feColorMatrix in="shadow" type="matrix" values="0.7 0 0 0 0  0 0.7 0 0 0  0 0 0.7 0 0  0 0 0 0.3 0" result="dark-shadow"></feColorMatrix><feOffset dx="0" dy="4" in="dark-shadow" result="offset-shadow"></feOffset><feOffset dx="0" dy="2" in="conv" result="offset-2"></feOffset><feComposite operator="out" in="offset" in2="offset-2" result="edge-diff"></feComposite><feGaussianBlur in="edge-diff" stdDeviation="1" result="edge-blur"></feGaussianBlur><feColorMatrix in="edge-blur" result="edge-shadow" type="matrix" values="0 0 0 0 0  0 0 0 0 0  0 0 0 0 0  0 0 0 0.5 0"></feColorMatrix><feComposite operator="in" in="edge-shadow" in2="offset" result="edge-shadow-in"></feComposite><feOffset dx="0" dy="1" in="edge-shadow-in" result="edge-shadow-final"></feOffset><feMerge result="out"><feMergeNode in="offset-shadow"></feMergeNode><feMergeNode in="comp"></feMergeNode><feMergeNode in="edge-shadow-final"></feMergeNode><feMergeNode in="SourceGraphic"></feMergeNode></feMerge></filter></defs><g filter="url(#editing-shiny)"><g transform="translate(34.82997798919678, 102.8700008392334)"><path d="M34.11-10.75L34.11-10.18L34.11-10.18Q34.11-7.74 35.78-7.74L35.78-7.74L35.78-7.74Q38.34-7.74 40.32-11.46L40.32-11.46L40.32-11.46Q42.18-15.10 42.18-19.46L42.18-19.46L42.18-19.46Q42.18-26.94 38.59-30.43L38.59-30.43L38.59-30.43Q35.01-33.92 27.52-33.92L27.52-33.92L27.52-33.92Q23.68-33.92 20.16-32.26L20.16-32.26L20.16-32.26Q16.64-30.59 13.95-27.62L13.95-27.62L13.95-27.62Q11.26-24.64 9.66-20.54L9.66-20.54L9.66-20.54Q8.06-16.45 8.06-11.65L8.06-11.65L8.06-11.65Q8.06-4.67 12.16-1.70L12.16-1.70L12.16-1.70Q16.26 1.28 24 1.28L24 1.28L24 1.28Q27.14 1.28 30.08 0.29L30.08 0.29L30.08 0.29Q33.02-0.70 34.62-1.86L34.62-1.86L34.62-1.86Q34.94-1.66 35.23-1.06L35.23-1.06L35.23-1.06Q35.52-0.45 35.52 0L35.52 0L35.52 0Q35.52 2.43 33.15 3.78L33.15 3.78L33.15 3.78Q28.67 6.27 23.04 6.27L23.04 6.27L23.04 6.27Q17.41 6.27 13.47 5.25L13.47 5.25L13.47 5.25Q9.54 4.22 6.78 2.18L6.78 2.18L6.78 2.18Q0.96-2.11 0.96-9.86L0.96-9.86L0.96-9.86Q0.96-15.87 3.33-21.09L3.33-21.09L3.33-21.09Q5.70-26.30 9.66-30.18L9.66-30.18L9.66-30.18Q13.63-34.05 18.78-36.26L18.78-36.26L18.78-36.26Q23.94-38.46 28.80-38.46L28.80-38.46L28.80-38.46Q33.66-38.46 37.18-37.34L37.18-37.34L37.18-37.34Q40.70-36.22 43.26-34.05L43.26-34.05L43.26-34.05Q48.83-29.50 48.83-21.31L48.83-21.31L48.83-21.31Q48.83-13.76 44.74-8.83L44.74-8.83L44.74-8.83Q40.90-4.22 35.14-4.22L35.14-4.22L35.14-4.22Q32.26-4.22 30.72-5.18L30.72-5.18L30.72-5.18Q29.18-6.14 28.74-8.64L28.74-8.64L28.74-8.64Q27.71-6.08 25.89-5.15L25.89-5.15L25.89-5.15Q24.06-4.22 21.50-4.22L21.50-4.22L21.50-4.22Q13.31-4.22 13.31-13.89L13.31-13.89L13.31-13.89Q13.31-19.97 16.90-24.26L16.90-24.26L16.90-24.26Q20.54-28.67 26.05-28.67L26.05-28.67L26.05-28.67Q28.16-28.67 30.21-27.84L30.21-27.84L37.12-28.67L34.18-11.39L34.18-11.39Q34.11-11.07 34.11-10.75L34.11-10.75ZM26.24-12.22L28.74-25.66L28.74-25.66Q27.97-26.30 26.82-26.30L26.82-26.30L26.82-26.30Q25.66-26.30 24.61-25.02L24.61-25.02L24.61-25.02Q23.55-23.74 22.78-21.50L22.78-21.50L22.78-21.50Q21.12-16.77 21.12-10.11L21.12-10.11L21.12-10.11Q21.12-8.90 21.63-8.26L21.63-8.26L21.63-8.26Q22.14-7.62 22.66-7.62L22.66-7.62L22.66-7.62Q23.94-7.62 24.90-8.90L24.90-8.90L24.90-8.90Q25.86-10.18 26.24-12.22L26.24-12.22ZM57.47 0L50.11 0L61.70-42.24L75.07-42.24L78.02-18.11L89.92-42.24L101.12-42.24L102.27-10.62L102.27-10.62Q102.53-4.35 105.60-2.43L105.60-2.43L105.60-2.43Q104.90-1.15 102.85 0.06L102.85 0.06L102.85 0.06Q100.80 1.28 98.08 1.28L98.08 1.28L98.08 1.28Q95.36 1.28 93.76 0.51L93.76 0.51L93.76 0.51Q92.16-0.26 91.26-1.54L91.26-1.54L91.26-1.54Q89.66-3.84 89.66-8.26L89.66-8.26L89.66-28.03L77.06 0L69.12 0L64.64-28.74L57.47 0ZM128.38-17.98L128.38-17.98L128.38-17.98Q130.69-22.08 130.69-26.24L130.69-26.24L130.69-26.24Q130.69-28.99 128.70-28.99L128.70-28.99L128.70-28.99Q127.17-28.99 125.57-26.37L125.57-26.37L125.57-26.37Q123.90-23.74 123.39-20.35L123.39-20.35L120.06 0L106.82 1.28L113.34-32.64L123.90-33.92L122.75-27.46L122.75-27.46Q125.89-33.92 132.93-33.92L132.93-33.92L132.93-33.92Q136.64-33.92 138.66-32L138.66-32L138.66-32Q140.67-30.08 140.67-26.14L140.67-26.14L140.67-26.14Q140.67-22.21 138.08-19.71L138.08-19.71L138.08-19.71Q135.49-17.22 131.07-17.22L131.07-17.22L131.07-17.22Q129.15-17.22 128.38-17.98ZM168.83 1.28L168.83 1.28L168.83 1.28Q160.64 1.28 159.87-10.37L159.87-10.37L148.86-10.37L148.86-10.37Q147.58-7.42 146.69-4.86L146.69-4.86L145.02 0L136.06 0L156.22-42.24L169.98-42.24L172.67-11.14L172.67-11.14Q173.31-4.42 175.87-2.43L175.87-2.43L175.87-2.43Q174.02 1.28 168.83 1.28ZM154.37-23.17L150.85-15.04L159.68-15.04L158.91-31.49L158.91-33.22L154.37-23.17ZM178.75-3.07L178.75-3.07L186.69-44.80L199.68-46.08L197.70-36.29L197.70-36.29Q196.99-33.28 196.10-31.17L196.10-31.17L196.10-31.17Q197.50-32.96 200.58-33.66L200.58-33.66L200.58-33.66Q201.47-33.92 202.56-33.92L202.56-33.92L202.56-33.92Q208.51-33.92 211.78-30.30L211.78-30.30L211.78-30.30Q215.04-26.69 215.04-19.71L215.04-19.71L215.04-19.71Q215.04-10.62 209.86-4.93L209.86-4.93L209.86-4.93Q204.29 1.28 194.18 1.28L194.18 1.28L194.18 1.28Q187.20 1.28 181.95-1.02L181.95-1.02L181.95-1.02Q180.10-1.86 178.75-3.07ZM195.01-22.40L191.62-3.65L191.62-3.65Q192.96-2.50 194.62-2.50L194.62-2.50L194.62-2.50Q196.29-2.50 197.25-3.14L197.25-3.14L197.25-3.14Q198.21-3.78 198.91-5.06L198.91-5.06L198.91-5.06Q200.83-8.51 202.37-19.07L202.37-19.07L202.37-19.07Q202.82-22.08 202.82-25.09L202.82-25.09L202.82-25.09Q202.82-28.10 202.14-29.06L202.14-29.06L202.14-29.06Q201.47-30.02 200.19-30.02L200.19-30.02L200.19-30.02Q196.29-30.02 195.01-22.40L195.01-22.40ZM251.07-7.10L251.07-7.10L251.07-7.10Q251.07-4.29 253.95-3.46L253.95-3.46L253.95-3.46Q253.25-1.09 250.50 0.19L250.50 0.19L250.50 0.19Q248.19 1.28 245.66 1.28L245.66 1.28L245.66 1.28Q243.14 1.28 241.82 0.61L241.82 0.61L241.82 0.61Q240.51-0.06 239.81-1.15L239.81-1.15L239.81-1.15Q238.66-2.82 238.66-5.95L238.66-5.95L238.66-5.95Q238.66-7.81 239.68-12.93L239.68-12.93L240.58-17.79L240.58-17.79Q241.66-23.36 241.66-25.41L241.66-25.41L241.66-25.41Q241.66-28.99 239.68-28.99L239.68-28.99L239.68-28.99Q237.18-28.99 235.58-25.34L235.58-25.34L235.58-25.34Q234.94-23.94 234.50-21.82L234.50-21.82L230.14 0L217.28 1.28L226.30-44.80L239.17-46.08L238.66-43.52L238.66-43.52Q236.86-33.66 235.33-30.34L235.33-30.34L235.33-30.34Q238.91-33.92 245.50-33.92L245.50-33.92L245.50-33.92Q252.48-33.92 253.76-29.31L253.76-29.31L253.76-29.31Q254.21-27.84 254.21-26.56L254.21-26.56L254.21-26.56Q254.21-25.28 254.11-24.29L254.11-24.29L254.11-24.29Q254.02-23.30 253.70-21.50L253.70-21.50L252.86-16.90L251.39-9.66L251.39-9.66Q251.07-8.19 251.07-7.10ZM274.50-3.52L274.50-3.52L274.50-3.52Q272.51 1.28 266.18 1.28L266.18 1.28L266.18 1.28Q262.91 1.28 260.86-0.96L260.86-0.96L260.86-0.96Q259.14-2.94 259.14-4.93L259.14-4.93L259.14-4.93Q259.14-10.11 261.50-20.22L261.50-20.22L263.87-32.64L276.86-33.92L272.96-13.70L272.96-13.70Q271.87-8.96 271.87-7.30L271.87-7.30L271.87-7.30Q271.87-3.65 274.50-3.52ZM265.02-41.54L265.02-41.54L265.02-41.54Q265.02-44.03 267.10-45.38L267.10-45.38L267.10-45.38Q269.18-46.72 272.19-46.72L272.19-46.72L272.19-46.72Q275.20-46.72 277.02-45.38L277.02-45.38L277.02-45.38Q278.85-44.03 278.85-41.54L278.85-41.54L278.85-41.54Q278.85-39.04 276.83-37.76L276.83-37.76L276.83-37.76Q274.82-36.48 271.81-36.48L271.81-36.48L271.81-36.48Q268.80-36.48 266.91-37.76L266.91-37.76L266.91-37.76Q265.02-39.04 265.02-41.54ZM280 7.23L280 7.23L280 7.23Q280 5.12 281.34 3.81L281.34 3.81L281.34 3.81Q282.69 2.50 284.74 2.50L284.74 2.50L311.68 2.50L311.68 2.50Q312 3.58 312 4.42L312 4.42L312 4.42Q312 6.34 310.69 7.68L310.69 7.68L310.69 7.68Q309.38 9.02 306.69 9.02L306.69 9.02L280.26 9.02L280.26 9.02Q280 8.19 280 7.23ZM323.71-1.60L323.33-9.47L331.33-15.62L336.32-19.71L336.32-19.71Q338.88-21.89 340.74-23.81L340.74-23.81L340.74-23.81Q344.13-27.20 344.13-30.46L344.13-30.46L344.13-30.46Q344.13-32.38 342.88-33.41L342.88-33.41L342.88-33.41Q341.63-34.43 339.81-34.43L339.81-34.43L339.81-34.43Q337.98-34.43 336.67-34.02L336.67-34.02L336.67-34.02Q335.36-33.60 334.21-32.90L334.21-32.90L334.21-32.90Q331.78-31.30 330.62-28.86L330.62-28.86L330.62-28.86Q329.02-28.93 327.97-30.27L327.97-30.27L327.97-30.27Q326.91-31.62 326.91-33.57L326.91-33.57L326.91-33.57Q326.91-35.52 328.13-37.34L328.13-37.34L328.13-37.34Q329.34-39.17 331.52-40.58L331.52-40.58L331.52-40.58Q336.26-43.52 342.75-43.52L342.75-43.52L342.75-43.52Q349.25-43.52 352.90-40.70L352.90-40.70L352.90-40.70Q356.54-37.89 356.54-33.09L356.54-33.09L356.54-33.09Q356.54-29.50 354.78-26.24L354.78-26.24L354.78-26.24Q353.02-22.98 348.35-19.65L348.35-19.65L341.44-14.78L337.28-12.03L331.97-8.77L334.21-8.51L334.21-8.51Q335.74-8.32 338.43-8.32L338.43-8.32L338.43-8.32Q341.12-8.32 343.36-8.61L343.36-8.61L343.36-8.61Q345.60-8.90 347.52-9.47L347.52-9.47L347.52-9.47Q351.74-10.62 353.09-12.22L353.09-12.22L353.09-12.22Q353.79-11.71 354.34-10.40L354.34-10.40L354.34-10.40Q354.88-9.09 354.88-7.49L354.88-7.49L354.88-7.49Q354.88-2.69 351.23-0.70L351.23-0.70L351.23-0.70Q347.58 1.28 340.10 1.28L340.10 1.28L340.10 1.28Q336.19 1.28 331.01 0.16L331.01 0.16L331.01 0.16Q325.82-0.96 323.71-1.60L323.71-1.60ZM376.26-30.34L376.26-30.34L376.26-30.34Q379.71-33.92 387.01-33.92L387.01-33.92L387.01-33.92Q391.04-33.92 393.25-31.78L393.25-31.78L393.25-31.78Q395.46-29.63 395.46-25.70L395.46-25.70L395.46-25.70Q395.46-21.76 393.25-18.98L393.25-18.98L393.25-18.98Q391.04-16.19 386.94-15.04L386.94-15.04L386.94-15.04Q387.26-13.76 387.71-12.42L387.71-12.42L388.61-9.86L388.61-9.86Q389.82-6.59 390.78-5.44L390.78-5.44L390.78-5.44Q391.74-4.29 393.02-3.90L393.02-3.90L393.02-3.90Q392.32-1.28 389.76 0.13L389.76 0.13L389.76 0.13Q387.71 1.28 384.90 1.28L384.90 1.28L384.90 1.28Q376.64 1.28 375.55-11.46L375.55-11.46L375.55-11.46Q375.36-13.25 375.36-15.04L375.36-15.04L375.36-15.04Q378.56-15.94 380.80-18.94L380.80-18.94L380.80-18.94Q383.04-21.95 383.04-25.47L383.04-25.47L383.04-25.47Q383.04-28.99 380.54-28.99L380.54-28.99L380.54-28.99Q378.75-28.99 377.34-27.01L377.34-27.01L377.34-27.01Q375.94-25.02 375.30-21.63L375.30-21.63L371.07 0L358.14 1.28L367.10-44.80L379.97-46.08L378.50-38.46L378.50-38.46Q377.54-33.09 376.26-30.34ZM419.14-23.10L419.14-23.10L419.14-23.10Q427.58-20.93 427.58-12.67L427.58-12.67L427.58-12.67Q427.58-6.72 422.53-2.82L422.53-2.82L422.53-2.82Q417.15 1.28 408.32 1.28L408.32 1.28L408.32 1.28Q403.07 1.28 399.94-0.74L399.94-0.74L399.94-0.74Q396.80-2.75 396.80-6.08L396.80-6.08L396.80-6.08Q396.80-9.41 399.30-11.46L399.30-11.46L399.30-11.46Q400.58-9.09 402.85-8L402.85-8L402.85-8Q405.12-6.91 408.03-6.91L408.03-6.91L408.03-6.91Q410.94-6.91 412.80-8.45L412.80-8.45L412.80-8.45Q414.66-9.98 414.66-12.99L414.66-12.99L414.66-12.99Q414.66-18.69 406.85-18.69L406.85-18.69L407.94-24.45L407.94-24.45Q417.28-25.98 417.28-30.59L417.28-30.59L417.28-30.59Q417.28-32.45 416-33.47L416-33.47L416-33.47Q414.72-34.50 412.29-34.50L412.29-34.50L412.29-34.50Q408-34.50 404.22-30.53L404.22-30.53L404.22-30.53Q403.01-30.85 402.50-31.71L402.50-31.71L402.50-31.71Q401.98-32.58 401.98-34.37L401.98-34.37L401.98-34.37Q401.98-36.16 403.26-37.86L403.26-37.86L403.26-37.86Q404.54-39.55 406.78-40.83L406.78-40.83L406.78-40.83Q411.58-43.52 418.05-43.52L418.05-43.52L418.05-43.52Q422.98-43.52 426.11-40.96L426.11-40.96L426.11-40.96Q429.38-38.34 429.38-34.43L429.38-34.43L429.38-34.43Q429.38-30.91 426.56-27.84L426.56-27.84L426.56-27.84Q423.74-24.77 419.14-23.10Z" fill="url(#editing-shiny-gradient)"></path></g></g><g filter="url(#editing-shiny2)"><g transform="translate(34.83001232147217, 102.87000465393066)"><path d="M34.11-10.75L34.11-10.18L34.11-10.18Q34.11-7.74 35.78-7.74L35.78-7.74L35.78-7.74Q38.34-7.74 40.32-11.46L40.32-11.46L40.32-11.46Q42.18-15.10 42.18-19.46L42.18-19.46L42.18-19.46Q42.18-26.94 38.59-30.43L38.59-30.43L38.59-30.43Q35.01-33.92 27.52-33.92L27.52-33.92L27.52-33.92Q23.68-33.92 20.16-32.26L20.16-32.26L20.16-32.26Q16.64-30.59 13.95-27.62L13.95-27.62L13.95-27.62Q11.26-24.64 9.66-20.54L9.66-20.54L9.66-20.54Q8.06-16.45 8.06-11.65L8.06-11.65L8.06-11.65Q8.06-4.67 12.16-1.70L12.16-1.70L12.16-1.70Q16.26 1.28 24 1.28L24 1.28L24 1.28Q27.14 1.28 30.08 0.29L30.08 0.29L30.08 0.29Q33.02-0.70 34.62-1.86L34.62-1.86L34.62-1.86Q34.94-1.66 35.23-1.06L35.23-1.06L35.23-1.06Q35.52-0.45 35.52 0L35.52 0L35.52 0Q35.52 2.43 33.15 3.78L33.15 3.78L33.15 3.78Q28.67 6.27 23.04 6.27L23.04 6.27L23.04 6.27Q17.41 6.27 13.47 5.25L13.47 5.25L13.47 5.25Q9.54 4.22 6.78 2.18L6.78 2.18L6.78 2.18Q0.96-2.11 0.96-9.86L0.96-9.86L0.96-9.86Q0.96-15.87 3.33-21.09L3.33-21.09L3.33-21.09Q5.70-26.30 9.66-30.18L9.66-30.18L9.66-30.18Q13.63-34.05 18.78-36.26L18.78-36.26L18.78-36.26Q23.94-38.46 28.80-38.46L28.80-38.46L28.80-38.46Q33.66-38.46 37.18-37.34L37.18-37.34L37.18-37.34Q40.70-36.22 43.26-34.05L43.26-34.05L43.26-34.05Q48.83-29.50 48.83-21.31L48.83-21.31L48.83-21.31Q48.83-13.76 44.74-8.83L44.74-8.83L44.74-8.83Q40.90-4.22 35.14-4.22L35.14-4.22L35.14-4.22Q32.26-4.22 30.72-5.18L30.72-5.18L30.72-5.18Q29.18-6.14 28.74-8.64L28.74-8.64L28.74-8.64Q27.71-6.08 25.89-5.15L25.89-5.15L25.89-5.15Q24.06-4.22 21.50-4.22L21.50-4.22L21.50-4.22Q13.31-4.22 13.31-13.89L13.31-13.89L13.31-13.89Q13.31-19.97 16.90-24.26L16.90-24.26L16.90-24.26Q20.54-28.67 26.05-28.67L26.05-28.67L26.05-28.67Q28.16-28.67 30.21-27.84L30.21-27.84L37.12-28.67L34.18-11.39L34.18-11.39Q34.11-11.07 34.11-10.75L34.11-10.75ZM26.24-12.22L28.74-25.66L28.74-25.66Q27.97-26.30 26.82-26.30L26.82-26.30L26.82-26.30Q25.66-26.30 24.61-25.02L24.61-25.02L24.61-25.02Q23.55-23.74 22.78-21.50L22.78-21.50L22.78-21.50Q21.12-16.77 21.12-10.11L21.12-10.11L21.12-10.11Q21.12-8.90 21.63-8.26L21.63-8.26L21.63-8.26Q22.14-7.62 22.66-7.62L22.66-7.62L22.66-7.62Q23.94-7.62 24.90-8.90L24.90-8.90L24.90-8.90Q25.86-10.18 26.24-12.22L26.24-12.22ZM57.47 0L50.11 0L61.70-42.24L75.07-42.24L78.02-18.11L89.92-42.24L101.12-42.24L102.27-10.62L102.27-10.62Q102.53-4.35 105.60-2.43L105.60-2.43L105.60-2.43Q104.90-1.15 102.85 0.06L102.85 0.06L102.85 0.06Q100.80 1.28 98.08 1.28L98.08 1.28L98.08 1.28Q95.36 1.28 93.76 0.51L93.76 0.51L93.76 0.51Q92.16-0.26 91.26-1.54L91.26-1.54L91.26-1.54Q89.66-3.84 89.66-8.26L89.66-8.26L89.66-28.03L77.06 0L69.12 0L64.64-28.74L57.47 0ZM128.38-17.98L128.38-17.98L128.38-17.98Q130.69-22.08 130.69-26.24L130.69-26.24L130.69-26.24Q130.69-28.99 128.70-28.99L128.70-28.99L128.70-28.99Q127.17-28.99 125.57-26.37L125.57-26.37L125.57-26.37Q123.90-23.74 123.39-20.35L123.39-20.35L120.06 0L106.82 1.28L113.34-32.64L123.90-33.92L122.75-27.46L122.75-27.46Q125.89-33.92 132.93-33.92L132.93-33.92L132.93-33.92Q136.64-33.92 138.66-32L138.66-32L138.66-32Q140.67-30.08 140.67-26.14L140.67-26.14L140.67-26.14Q140.67-22.21 138.08-19.71L138.08-19.71L138.08-19.71Q135.49-17.22 131.07-17.22L131.07-17.22L131.07-17.22Q129.15-17.22 128.38-17.98ZM168.83 1.28L168.83 1.28L168.83 1.28Q160.64 1.28 159.87-10.37L159.87-10.37L148.86-10.37L148.86-10.37Q147.58-7.42 146.69-4.86L146.69-4.86L145.02 0L136.06 0L156.22-42.24L169.98-42.24L172.67-11.14L172.67-11.14Q173.31-4.42 175.87-2.43L175.87-2.43L175.87-2.43Q174.02 1.28 168.83 1.28ZM154.37-23.17L150.85-15.04L159.68-15.04L158.91-31.49L158.91-33.22L154.37-23.17ZM178.75-3.07L178.75-3.07L186.69-44.80L199.68-46.08L197.70-36.29L197.70-36.29Q196.99-33.28 196.10-31.17L196.10-31.17L196.10-31.17Q197.50-32.96 200.58-33.66L200.58-33.66L200.58-33.66Q201.47-33.92 202.56-33.92L202.56-33.92L202.56-33.92Q208.51-33.92 211.78-30.30L211.78-30.30L211.78-30.30Q215.04-26.69 215.04-19.71L215.04-19.71L215.04-19.71Q215.04-10.62 209.86-4.93L209.86-4.93L209.86-4.93Q204.29 1.28 194.18 1.28L194.18 1.28L194.18 1.28Q187.20 1.28 181.95-1.02L181.95-1.02L181.95-1.02Q180.10-1.86 178.75-3.07ZM195.01-22.40L191.62-3.65L191.62-3.65Q192.96-2.50 194.62-2.50L194.62-2.50L194.62-2.50Q196.29-2.50 197.25-3.14L197.25-3.14L197.25-3.14Q198.21-3.78 198.91-5.06L198.91-5.06L198.91-5.06Q200.83-8.51 202.37-19.07L202.37-19.07L202.37-19.07Q202.82-22.08 202.82-25.09L202.82-25.09L202.82-25.09Q202.82-28.10 202.14-29.06L202.14-29.06L202.14-29.06Q201.47-30.02 200.19-30.02L200.19-30.02L200.19-30.02Q196.29-30.02 195.01-22.40L195.01-22.40ZM251.07-7.10L251.07-7.10L251.07-7.10Q251.07-4.29 253.95-3.46L253.95-3.46L253.95-3.46Q253.25-1.09 250.50 0.19L250.50 0.19L250.50 0.19Q248.19 1.28 245.66 1.28L245.66 1.28L245.66 1.28Q243.14 1.28 241.82 0.61L241.82 0.61L241.82 0.61Q240.51-0.06 239.81-1.15L239.81-1.15L239.81-1.15Q238.66-2.82 238.66-5.95L238.66-5.95L238.66-5.95Q238.66-7.81 239.68-12.93L239.68-12.93L240.58-17.79L240.58-17.79Q241.66-23.36 241.66-25.41L241.66-25.41L241.66-25.41Q241.66-28.99 239.68-28.99L239.68-28.99L239.68-28.99Q237.18-28.99 235.58-25.34L235.58-25.34L235.58-25.34Q234.94-23.94 234.50-21.82L234.50-21.82L230.14 0L217.28 1.28L226.30-44.80L239.17-46.08L238.66-43.52L238.66-43.52Q236.86-33.66 235.33-30.34L235.33-30.34L235.33-30.34Q238.91-33.92 245.50-33.92L245.50-33.92L245.50-33.92Q252.48-33.92 253.76-29.31L253.76-29.31L253.76-29.31Q254.21-27.84 254.21-26.56L254.21-26.56L254.21-26.56Q254.21-25.28 254.11-24.29L254.11-24.29L254.11-24.29Q254.02-23.30 253.70-21.50L253.70-21.50L252.86-16.90L251.39-9.66L251.39-9.66Q251.07-8.19 251.07-7.10ZM274.50-3.52L274.50-3.52L274.50-3.52Q272.51 1.28 266.18 1.28L266.18 1.28L266.18 1.28Q262.91 1.28 260.86-0.96L260.86-0.96L260.86-0.96Q259.14-2.94 259.14-4.93L259.14-4.93L259.14-4.93Q259.14-10.11 261.50-20.22L261.50-20.22L263.87-32.64L276.86-33.92L272.96-13.70L272.96-13.70Q271.87-8.96 271.87-7.30L271.87-7.30L271.87-7.30Q271.87-3.65 274.50-3.52ZM265.02-41.54L265.02-41.54L265.02-41.54Q265.02-44.03 267.10-45.38L267.10-45.38L267.10-45.38Q269.18-46.72 272.19-46.72L272.19-46.72L272.19-46.72Q275.20-46.72 277.02-45.38L277.02-45.38L277.02-45.38Q278.85-44.03 278.85-41.54L278.85-41.54L278.85-41.54Q278.85-39.04 276.83-37.76L276.83-37.76L276.83-37.76Q274.82-36.48 271.81-36.48L271.81-36.48L271.81-36.48Q268.80-36.48 266.91-37.76L266.91-37.76L266.91-37.76Q265.02-39.04 265.02-41.54ZM280 7.23L280 7.23L280 7.23Q280 5.12 281.34 3.81L281.34 3.81L281.34 3.81Q282.69 2.50 284.74 2.50L284.74 2.50L311.68 2.50L311.68 2.50Q312 3.58 312 4.42L312 4.42L312 4.42Q312 6.34 310.69 7.68L310.69 7.68L310.69 7.68Q309.38 9.02 306.69 9.02L306.69 9.02L280.26 9.02L280.26 9.02Q280 8.19 280 7.23ZM323.71-1.60L323.33-9.47L331.33-15.62L336.32-19.71L336.32-19.71Q338.88-21.89 340.74-23.81L340.74-23.81L340.74-23.81Q344.13-27.20 344.13-30.46L344.13-30.46L344.13-30.46Q344.13-32.38 342.88-33.41L342.88-33.41L342.88-33.41Q341.63-34.43 339.81-34.43L339.81-34.43L339.81-34.43Q337.98-34.43 336.67-34.02L336.67-34.02L336.67-34.02Q335.36-33.60 334.21-32.90L334.21-32.90L334.21-32.90Q331.78-31.30 330.62-28.86L330.62-28.86L330.62-28.86Q329.02-28.93 327.97-30.27L327.97-30.27L327.97-30.27Q326.91-31.62 326.91-33.57L326.91-33.57L326.91-33.57Q326.91-35.52 328.13-37.34L328.13-37.34L328.13-37.34Q329.34-39.17 331.52-40.58L331.52-40.58L331.52-40.58Q336.26-43.52 342.75-43.52L342.75-43.52L342.75-43.52Q349.25-43.52 352.90-40.70L352.90-40.70L352.90-40.70Q356.54-37.89 356.54-33.09L356.54-33.09L356.54-33.09Q356.54-29.50 354.78-26.24L354.78-26.24L354.78-26.24Q353.02-22.98 348.35-19.65L348.35-19.65L341.44-14.78L337.28-12.03L331.97-8.77L334.21-8.51L334.21-8.51Q335.74-8.32 338.43-8.32L338.43-8.32L338.43-8.32Q341.12-8.32 343.36-8.61L343.36-8.61L343.36-8.61Q345.60-8.90 347.52-9.47L347.52-9.47L347.52-9.47Q351.74-10.62 353.09-12.22L353.09-12.22L353.09-12.22Q353.79-11.71 354.34-10.40L354.34-10.40L354.34-10.40Q354.88-9.09 354.88-7.49L354.88-7.49L354.88-7.49Q354.88-2.69 351.23-0.70L351.23-0.70L351.23-0.70Q347.58 1.28 340.10 1.28L340.10 1.28L340.10 1.28Q336.19 1.28 331.01 0.16L331.01 0.16L331.01 0.16Q325.82-0.96 323.71-1.60L323.71-1.60ZM376.26-30.34L376.26-30.34L376.26-30.34Q379.71-33.92 387.01-33.92L387.01-33.92L387.01-33.92Q391.04-33.92 393.25-31.78L393.25-31.78L393.25-31.78Q395.46-29.63 395.46-25.70L395.46-25.70L395.46-25.70Q395.46-21.76 393.25-18.98L393.25-18.98L393.25-18.98Q391.04-16.19 386.94-15.04L386.94-15.04L386.94-15.04Q387.26-13.76 387.71-12.42L387.71-12.42L388.61-9.86L388.61-9.86Q389.82-6.59 390.78-5.44L390.78-5.44L390.78-5.44Q391.74-4.29 393.02-3.90L393.02-3.90L393.02-3.90Q392.32-1.28 389.76 0.13L389.76 0.13L389.76 0.13Q387.71 1.28 384.90 1.28L384.90 1.28L384.90 1.28Q376.64 1.28 375.55-11.46L375.55-11.46L375.55-11.46Q375.36-13.25 375.36-15.04L375.36-15.04L375.36-15.04Q378.56-15.94 380.80-18.94L380.80-18.94L380.80-18.94Q383.04-21.95 383.04-25.47L383.04-25.47L383.04-25.47Q383.04-28.99 380.54-28.99L380.54-28.99L380.54-28.99Q378.75-28.99 377.34-27.01L377.34-27.01L377.34-27.01Q375.94-25.02 375.30-21.63L375.30-21.63L371.07 0L358.14 1.28L367.10-44.80L379.97-46.08L378.50-38.46L378.50-38.46Q377.54-33.09 376.26-30.34ZM419.14-23.10L419.14-23.10L419.14-23.10Q427.58-20.93 427.58-12.67L427.58-12.67L427.58-12.67Q427.58-6.72 422.53-2.82L422.53-2.82L422.53-2.82Q417.15 1.28 408.32 1.28L408.32 1.28L408.32 1.28Q403.07 1.28 399.94-0.74L399.94-0.74L399.94-0.74Q396.80-2.75 396.80-6.08L396.80-6.08L396.80-6.08Q396.80-9.41 399.30-11.46L399.30-11.46L399.30-11.46Q400.58-9.09 402.85-8L402.85-8L402.85-8Q405.12-6.91 408.03-6.91L408.03-6.91L408.03-6.91Q410.94-6.91 412.80-8.45L412.80-8.45L412.80-8.45Q414.66-9.98 414.66-12.99L414.66-12.99L414.66-12.99Q414.66-18.69 406.85-18.69L406.85-18.69L407.94-24.45L407.94-24.45Q417.28-25.98 417.28-30.59L417.28-30.59L417.28-30.59Q417.28-32.45 416-33.47L416-33.47L416-33.47Q414.72-34.50 412.29-34.50L412.29-34.50L412.29-34.50Q408-34.50 404.22-30.53L404.22-30.53L404.22-30.53Q403.01-30.85 402.50-31.71L402.50-31.71L402.50-31.71Q401.98-32.58 401.98-34.37L401.98-34.37L401.98-34.37Q401.98-36.16 403.26-37.86L403.26-37.86L403.26-37.86Q404.54-39.55 406.78-40.83L406.78-40.83L406.78-40.83Q411.58-43.52 418.05-43.52L418.05-43.52L418.05-43.52Q422.98-43.52 426.11-40.96L426.11-40.96L426.11-40.96Q429.38-38.34 429.38-34.43L429.38-34.43L429.38-34.43Q429.38-30.91 426.56-27.84L426.56-27.84L426.56-27.84Q423.74-24.77 419.14-23.10Z" fill="url(#editing-shiny-gradient2)"></path></g></g><style>text {
  font-size: 64px;
  font-family: Arial Black;
  dominant-baseline: central;
  text-anchor: middle;
}</style></svg>